<?xml version="1.0" encoding="UTF-8"?>
<svg id="Layer_3" data-name="Layer 3" xmlns="http://www.w3.org/2000/svg" version="1.1" viewBox="0 0 180 180">
  <path class="download-icon" d="M120.9,100l-25.6,25.6c-1.3,1.4-3.3,2.2-5.3,2.2s-3.9-.8-5.3-2.2l-25.6-25.6c-2.9-2.9-2.9-7.7,0-10.6s3.3-2.2,5.3-2.2,3.9.8,5.3,2.2l12.8,12.7V28.9c0-4.1,3.4-7.5,7.5-7.5s7.5,3.4,7.5,7.5v73.2l12.7-12.7c1.4-1.4,3.3-2.2,5.3-2.2s3.9.8,5.3,2.2c2.9,2.9,2.9,7.7,0,10.6Z" fill="#000" stroke-width="0"/>
  <path class="download-icon" d="M163.7,92.4v36.6c0,16.3-13.3,29.6-29.6,29.6H45.8c-16.3,0-29.6-13.3-29.6-29.6v-37.2c0-4.1,3.4-7.5,7.5-7.5s7.5,3.4,7.5,7.5v37.2c0,8,6.5,14.5,14.5,14.5h88.3c8,0,14.5-6.5,14.5-14.5v-36.6c0-4.2,3.4-7.5,7.5-7.5s7.5,3.4,7.5,7.5Z" fill="#000" stroke-width="0"/>
</svg>