<?xml version="1.0" encoding="UTF-8"?>
<svg id="Layer_3" data-name="Layer 3" xmlns="http://www.w3.org/2000/svg" version="1.1" viewBox="0 0 180 180">
  <path class="download-icon" d="M156.2,88.4c-2.2,0-4,1.8-4,4v36.6c0,10-8.1,18-18,18H45.8c-10,0-18-8.1-18-18v-37.2c0-2.2-1.8-4-4-4s-4,1.8-4,4v37.2c0,14.4,11.7,26.1,26.1,26.1h88.3c14.4,0,26.1-11.7,26.1-26.1v-36.6c0-2.2-1.8-4-4-4Z" fill="#000" stroke-width="0"/>
  <path class="download-icon" d="M87.2,123.1c.8.8,1.8,1.2,2.8,1.2s2.1-.4,2.8-1.2l25.6-25.6c1.6-1.6,1.6-4.1,0-5.7s-4.1-1.6-5.7,0l-18.7,18.7V28.9c0-2.2-1.8-4-4-4s-4,1.8-4,4v81.7l-18.7-18.7c-1.6-1.6-4.1-1.6-5.7,0s-1.6,4.1,0,5.7l25.6,25.6Z" fill="#000" stroke-width="0"/>
</svg>