<?xml version="1.0" encoding="utf-8"?>
<!-- Generator: Adobe Illustrator 27.5.0, SVG Export Plug-In . SVG Version: 6.00 Build 0)  -->
<svg version="1.1" xmlns="http://www.w3.org/2000/svg" xmlns:xlink="http://www.w3.org/1999/xlink" x="0px" y="0px"
	 viewBox="0 0 9.1 8.8" style="enable-background:new 0 0 9.1 8.8;" xml:space="preserve">
<style type="text/css">
	.st0{fill:#03494F;}
	.st1{fill-rule:evenodd;clip-rule:evenodd;fill:#03494F;}
</style>
<g id="Layer_1">
</g>
<g id="Layer_2">
</g>
<g id="Layer_3">
</g>
<g id="Layer_4">
</g>
<g id="Layer_5">
	<g>
		<path class="st1" d="M4.5,0C2,0,0,2,0,4.5c0,2,1.3,3.7,3.1,4.3c0.2,0,0.3-0.1,0.3-0.2c0-0.1,0-0.5,0-0.8C2.1,8.1,1.9,7.2,1.9,7.2
			C1.7,6.7,1.4,6.6,1.4,6.6c-0.4-0.3,0-0.3,0-0.3c0.5,0,0.7,0.5,0.7,0.5c0.4,0.7,1.1,0.5,1.3,0.4c0-0.3,0.2-0.5,0.3-0.6
			C2.7,6.4,1.6,6,1.6,4.3c0-0.5,0.2-0.9,0.5-1.2c0-0.1-0.2-0.6,0-1.2c0,0,0.4-0.1,1.2,0.5c0.4-0.1,0.7-0.2,1.1-0.2
			c0.4,0,0.8,0.1,1.1,0.2c0.9-0.6,1.2-0.5,1.2-0.5C7.2,2.5,7,3,7,3.1c0.3,0.3,0.5,0.7,0.5,1.2c0,1.7-1.1,2.1-2.1,2.2
			C5.5,6.7,5.7,7,5.7,7.4c0,0.6,0,1.1,0,1.2c0,0.1,0.1,0.3,0.3,0.2c1.8-0.6,3.1-2.3,3.1-4.3C9.1,2,7,0,4.5,0z"/>
		<path class="st0" d="M1.7,6.5C1.7,6.5,1.7,6.5,1.7,6.5c-0.1,0-0.1,0-0.1-0.1C1.6,6.4,1.6,6.4,1.7,6.5C1.7,6.5,1.7,6.5,1.7,6.5
			L1.7,6.5z M1.7,6.5"/>
		<path class="st0" d="M1.9,6.7C1.9,6.7,1.8,6.7,1.9,6.7C1.8,6.7,1.8,6.6,1.8,6.6C1.8,6.6,1.9,6.6,1.9,6.7C1.9,6.7,1.9,6.7,1.9,6.7
			L1.9,6.7z M1.9,6.7"/>
		<path class="st0" d="M2.1,7c0,0-0.1,0-0.1,0c0,0,0-0.1,0-0.1c0,0,0.1,0,0.1,0C2.1,6.9,2.1,7,2.1,7L2.1,7z M2.1,7"/>
		<path class="st0" d="M2.3,7.2c0,0-0.1,0-0.1,0c0,0-0.1-0.1,0-0.1c0,0,0.1,0,0.1,0C2.3,7.2,2.4,7.2,2.3,7.2L2.3,7.2z M2.3,7.2"/>
		<path class="st0" d="M2.7,7.4c0,0-0.1,0.1-0.1,0c-0.1,0-0.1-0.1-0.1-0.1C2.5,7.3,2.5,7.3,2.7,7.4C2.6,7.3,2.7,7.3,2.7,7.4L2.7,7.4
			z M2.7,7.4"/>
		<path class="st0" d="M3,7.4C3,7.4,3,7.5,3,7.4c-0.2,0.1-0.2,0-0.2,0C2.8,7.4,2.9,7.3,3,7.4C3,7.3,3,7.4,3,7.4L3,7.4z M3,7.4"/>
		<path class="st0" d="M3.4,7.3C3.4,7.4,3.3,7.4,3.4,7.3c-0.1,0.1-0.2,0.1-0.2,0c0,0,0-0.1,0.1-0.1C3.3,7.3,3.4,7.3,3.4,7.3L3.4,7.3
			z M3.4,7.3"/>
	</g>
</g>
</svg>
