<?xml version="1.0" encoding="UTF-8"?>
<svg id="Layer_1" data-name="Layer 1" xmlns="http://www.w3.org/2000/svg" version="1.1" viewBox="0 0 320.1 540.9">
  <defs>
    <style>
      .cls-1 {
        fill: #000;
        stroke-width: 0px;
      }
    </style>
  </defs>
  <path class="cls-1" d="M14.9,305.1h0c-19.9-19.9-19.9-52.2,0-72.1L233,14.9c19.9-19.9,52.2-19.9,72.1,0h0c19.9,19.9,19.9,52.2,0,72.1l-218.1,218.1c-19.9,19.9-52.2,19.9-72.1,0Z"/>
  <path class="cls-1" d="M14.7,235.5h0c19.6-19.6,51.3-19.6,70.9,0l219.7,219.8c19.6,19.6,19.6,51.3,0,70.9h0c-19.6,19.6-51.3,19.6-70.9,0L14.7,306.4c-19.6-19.5-19.6-51.3,0-70.9Z"/>
</svg>