<?xml version="1.0" encoding="utf-8"?>
<!-- Generator: Adobe Illustrator 27.5.0, SVG Export Plug-In . SVG Version: 6.00 Build 0)  -->
<svg version="1.1" xmlns="http://www.w3.org/2000/svg" xmlns:xlink="http://www.w3.org/1999/xlink" x="0px" y="0px"
	 viewBox="0 0 9.1 8.9" style="enable-background:new 0 0 9.1 8.9;" xml:space="preserve">
<style type="text/css">
	.st0{fill:#03494F;}
	.st1{fill-rule:evenodd;clip-rule:evenodd;fill:#03494F;}
</style>
<g id="Layer_1">
</g>
<g id="Layer_2">
</g>
<g id="Layer_3">
</g>
<g id="Layer_4">
	<g>
		<path class="st0" d="M2.1,1c0,0.5-0.4,1-1,1c-0.6,0-1-0.4-1-1c0-0.5,0.4-1,1-1C1.7,0,2,0.4,2.1,1z M0.1,8.9V2.7H2v6.2H0.1z"/>
		<path class="st0" d="M3.2,4.7c0-0.8,0-1.4-0.1-2h1.7l0.1,0.9h0c0.3-0.4,0.9-1,1.9-1c1.3,0,2.2,0.9,2.2,2.7v3.7H7.1V5.5
			c0-0.8-0.3-1.4-1-1.4c-0.5,0-0.9,0.4-1,0.7C5.1,5,5.1,5.2,5.1,5.3v3.6H3.2V4.7z"/>
	</g>
</g>
<g id="Layer_5">
</g>
</svg>
