<?xml version="1.0" encoding="utf-8"?>
<!-- Generator: Adobe Illustrator 27.5.0, SVG Export Plug-In . SVG Version: 6.00 Build 0)  -->
<svg version="1.1" id="Layer_1" xmlns="http://www.w3.org/2000/svg" xmlns:xlink="http://www.w3.org/1999/xlink" x="0px" y="0px"
	 viewBox="0 0 9.1 7" style="enable-background:new 0 0 9.1 7;" xml:space="preserve">

<g>
	<path  d="M0.7,0.1l3.2,3.6C4,3.9,4.3,4,4.5,4C4.8,4,5,3.9,5.2,3.7l3.1-3.5l0.1-0.1C8.3,0,8.2,0,8,0H1.1
		C0.9,0,0.8,0,0.7,0.1L0.7,0.1z"/>
	<path  d="M8.9,0.5c0,0,0,0.1-0.1,0.1L5.7,4.1C5.4,4.5,5,4.7,4.5,4.7S3.6,4.5,3.3,4.2L0.2,0.5l0,0C0.1,0.7,0,0.9,0,1.1
		v4.8C0,6.5,0.5,7,1.1,7H8c0.6,0,1.1-0.5,1.1-1.1V1.1C9.1,0.9,9,0.7,8.9,0.5z"/>
</g>
</svg>
