<?xml version="1.0" encoding="utf-8"?>
<!-- Generator: Adobe Illustrator 27.5.0, SVG Export Plug-In . SVG Version: 6.00 Build 0)  -->
<svg version="1.1" id="Layer_1" xmlns="http://www.w3.org/2000/svg" xmlns:xlink="http://www.w3.org/1999/xlink" x="0px" y="0px"
	 viewBox="0 0 9.1 8.4" style="enable-background:new 0 0 9.1 8.4;" xml:space="preserve">
<path 
d="M8,5.6C7.6,5.3,7.1,5.1,6.7,5.3C6.3,5.4,6.1,6,5.9,6.2C5.7,6.4,5.6,6.4,5.4,6.3c-1.3-0.5-2.3-1.4-3-2.6
	c-0.1-0.2-0.1-0.3,0-0.5C2.7,3,2.9,2.7,3,2.3c0.1-0.3-0.1-0.7-0.2-1C2.6,0.9,2.4,0.3,2,0.1S1.1,0,0.8,0.3C0.3,0.7,0,1.4,0,2.1
	c0,0.2,0,0.4,0.1,0.6C0.2,3.2,0.4,3.6,0.6,4S1,4.7,1.2,4.9c0.7,0.9,1.6,1.8,2.6,2.4c0.5,0.3,1,0.6,1.6,0.8C6,8.3,6.6,8.5,7.3,8.4
	C8,8.3,8.7,7.8,9,7.1c0.1-0.2,0.1-0.4,0.1-0.6C9,6,8.4,5.8,8,5.6z"/>
</svg>
