<?xml version="1.0" encoding="UTF-8"?>
<svg xmlns="http://www.w3.org/2000/svg" version="1.1" viewBox="0 0 180 180">
  <g id="Layer_1" data-name="Layer 1">
    <rect x="-400" y="0" width="180" height="180" fill="#000" stroke-width="0"/>
    <path d="M-275.8,65.8v17.4h26.9l-3.5,27.2h-23.4v69.7h-28.1v-69.7h-23.5v-27.2h23.5v-20c0-23.3,14.2-35.9,34.9-35.9s18.5.7,21,1.1v24.3h-14.4c-11.3,0-13.5,5.4-13.5,13.2Z" fill="#fff" stroke-width="0"/>
  </g>
  <g id="Layer_2" data-name="Layer 2">
    <rect x="-200" y="0" width="180" height="180" fill="#000" stroke-width="0"/>
    <path d="M-50,90.5c0,26.5-17.2,49-41,56.9-3,.6-4-1.3-4-2.9v-16.5c0-5.6-2-9.2-4.1-11.1,13.4-1.5,27.4-6.6,27.4-29.6s-2.3-11.9-6.2-16.1c.6-1.5,2.7-7.6-.6-15.9,0,0-5-1.6-16.5,6.2-4.8-1.4-9.9-2-15-2-5.1,0-10.2.7-15,2-11.5-7.8-16.5-6.2-16.5-6.2-3.3,8.3-1.2,14.4-.6,15.9-3.8,4.2-6.2,9.5-6.2,16.1,0,23,14,28.1,27.3,29.7-1.7,1.5-3.3,4.1-3.8,8-3.4,1.5-12.1,4.2-17.5-5,0,0-3.2-5.8-9.2-6.2,0,0-5.8,0-.4,3.7,0,0,3.9,1.8,6.7,8.8,0,0,3.5,10.7,20.2,7.1v11.2c0,1.6-1,3.4-4,2.9-23.9-7.9-41-30.4-41-56.9s26.9-60,60-60,60,26.9,60,60Z" fill="#fff" stroke-width="0"/>
  </g>
  <g id="Layer_3" data-name="Layer 3">
    <g>
      <path d="M156.2,84.9c-4.1,0-7.5,3.4-7.5,7.5v36.6c0,8-6.5,14.5-14.5,14.5H45.8c-8,0-14.5-6.5-14.5-14.5v-37.2c0-4.1-3.4-7.5-7.5-7.5s-7.5,3.4-7.5,7.5v37.2c0,16.3,13.3,29.6,29.6,29.6h88.3c16.3,0,29.6-13.3,29.6-29.6v-36.6c0-4.1-3.4-7.5-7.5-7.5Z" fill="#000" stroke-width="0"/>
      <path d="M84.7,125.6c1.4,1.4,3.3,2.2,5.3,2.2s4-.8,5.3-2.2l25.6-25.6c2.9-2.9,2.9-7.7,0-10.6-1.4-1.4-3.3-2.2-5.3-2.2s-3.9.8-5.3,2.2l-12.7,12.7V28.9c0-4.1-3.4-7.5-7.5-7.5s-7.5,3.4-7.5,7.5v73.2l-12.7-12.7c-1.4-1.4-3.3-2.2-5.3-2.2s-3.9.8-5.3,2.2c-2.9,2.9-2.9,7.7,0,10.6l25.6,25.6Z" fill="#000" stroke-width="0"/>
    </g>
  </g>
</svg>