<?xml version="1.0" encoding="UTF-8"?>
<svg id="Layer_1" data-name="Layer 1" xmlns="http://www.w3.org/2000/svg" version="1.1" viewBox="0 0 180 180">
  <rect width="180" height="180" fill="#fff" stroke-width="0"/>
  <g id="Xd">
    <rect width="180" height="180" fill="#480036" stroke-width="0"/>
    <g>
      <path d="M68.6,87.6l22.6,36.7c.4.6.1,1-.4,1.1h-13.8c-.9,0-1.3-.2-1.7-.9-5.4-9.2-10.8-18.4-16.3-28.1h-.1c-5,9.4-10.3,18.9-15.5,28.1-.3.7-.7.9-1.3.9h-13.1c-.8,0-.8-.7-.4-1.1l21.9-35.8-21.5-35.6c-.3-.6,0-1,.6-1h13.6c.7,0,1,.1,1.3.8,4.9,9.3,10.5,18.4,15.5,27.7h.1c4.9-9.3,10.2-18.4,15.3-27.6.2-.6.6-.9,1.3-.9h12.5c.7,0,.8.4.4,1.1l-21.1,34.5Z" fill="#ff40f0" stroke-width="0"/>
      <path d="M93.4,98.4c0-16.2,12.1-29.2,31.8-29.2s2.9.1,4.8.3v-22.9c0-.6.2-.8.7-.8h12.2c.6,0,.6.2.6.7v67.5c0,2.2.2,5.1.4,7.2,0,.6-.1.8-.7,1-7.3,3.1-14.4,4.4-21.1,4.4-16.2,0-28.6-9.4-28.6-28.2ZM129.9,81.3c-1.5-.6-3.2-.8-5.3-.8-10,0-17.4,6.4-17.4,17.2s7.3,17.2,16.2,17.2,4.5-.2,6.5-.9v-32.8Z" fill="#ff40f0" stroke-width="0"/>
    </g>
  </g>
</svg>