<?xml version="1.0" encoding="UTF-8"?>
<svg id="Layer_1" data-name="Layer 1" xmlns="http://www.w3.org/2000/svg" version="1.1" viewBox="0 0 180 180">
  <rect width="180" height="180" fill="#fff" stroke-width="0"/>
  <g id="Pr">
    <rect width="180" height="180" fill="#11005d" stroke-width="0"/>
    <g>
      <path d="M47.7,53c0-.6.2-.9.8-.9,4.2-.1,12.5-.3,20.7-.3,21.7,0,29.7,12.1,29.7,24.4,0,17.8-13.8,25.5-30.6,25.5h-7v22.9c0,.6-.2.9-.9.9h-12.6V53ZM61.3,89.7c1.9.1,3.4.1,7,.1,9.4,0,17.3-3.1,17.3-13.3s-5.8-13-16.1-13-7,.1-8.3.2v25.9Z" fill="#9d90fa" stroke-width="0"/>
      <path d="M119.3,70.3c.7,0,1,.2,1.2.9.6,1.5,1,4.2,1.1,6.7,3.9-4.9,10.7-9,18.8-8.7v12.6c0,.6-.2.8-1,.8-7.9-.2-14.5,2.6-17.1,5.9v36.9h-12.6c-.8,0-1-.3-1-.9v-38.6c0-4.8-.1-11.3-.6-15,0-.6.1-.7.7-.7h10.5Z" fill="#9d90fa" stroke-width="0"/>
    </g>
  </g>
</svg>