<?xml version="1.0" encoding="UTF-8"?>
<svg id="Layer_1" data-name="Layer 1" xmlns="http://www.w3.org/2000/svg" version="1.1" viewBox="0 0 180 180">
  <rect width="180" height="180" fill="#fff" stroke-width="0"/>
  <g id="Ps">
    <polygon points="180 180 0 180 0 0 180 0 180 0 180 180 180 180" fill="#001d33" stroke-width="0"/>
    <g>
      <path d="M43.1,53c0-.6.2-.9.8-.9,4.2-.1,12.5-.3,20.7-.3,21.7,0,29.7,12.1,29.7,24.4,0,17.8-13.8,25.5-30.6,25.5h-7v22.9c0,.6-.2.9-.9.9h-12.6V53ZM56.6,89.7c1.9.1,3.4.1,7,.1,9.4,0,17.3-3.1,17.3-13.3s-5.8-13-16.1-13-7,.1-8.3.2v25.9Z" fill="#00a7ff" stroke-width="0"/>
      <path d="M124.3,80c-5.9,0-7.9,2.5-7.9,4.8s1.7,4.1,8.8,6.9c12.7,4.7,17.1,9.7,17.1,17.7s-8.3,17.1-22,17.1-12.4-1.2-15.8-3.1c-.6-.3-.8-.6-.8-1.2v-10.6c0-.6.4-.8.9-.6,4.8,3.1,11,4.5,16,4.5s8.6-2,8.6-4.9-2.1-4.6-9.1-7.4c-12.2-4.5-16.5-9.5-16.5-17.6s6.9-16.4,20.9-16.4,11.4.9,14.1,2.2c.6.3.7.8.7,1.3v9.8c0,.6-.3.9-1,.7-3.5-1.9-9.1-3.2-14-3.2Z" fill="#00a7ff" stroke-width="0"/>
    </g>
  </g>
</svg>