<?xml version="1.0" encoding="UTF-8"?>
<svg id="Layer_1" data-name="Layer 1" xmlns="http://www.w3.org/2000/svg" version="1.1" viewBox="0 0 180 180">
  <rect width="180" height="180" fill="#fff" stroke-width="0"/>
  <g id="Ai">
    <rect y="0" width="180" height="180" fill="#310000" stroke-width="0"/>
    <g>
      <path d="M61.7,106.1l-6.1,18.4c-.2.7-.6.9-1.2.9h-11.2c-.7,0-.9-.3-.8-1.1l23-65.5c.4-1.1.8-2.2,1-6,0-.4.2-.8.7-.8h15.5c.6,0,.7.1.8.7l25.8,71.8c.1.7,0,1-.7,1h-12.5c-.6,0-.9-.2-1.1-.7l-6.5-18.7h-26.7ZM84.9,93.9c-2.3-7.4-7.6-22.9-9.8-30.7h-.1c-1.8,7.5-6.3,20.6-9.6,30.7h19.6Z" fill="#eea808" stroke-width="0"/>
      <path d="M124.3,47.4c4.8,0,7.6,3.2,7.6,7.7s-5.6,9.8-13.5,6.4c-4.3-7.8-.5-14.1,5.9-14.1ZM117.4,124.4v-54.1h13.6v54.2c0,.7-.2.9-1,.9h-11.5c-.8,0-1.1-.3-1.1-1Z" fill="#eea808" stroke-width="0"/>
    </g>
  </g>
</svg>