<?xml version="1.0" encoding="UTF-8"?>
<svg id="Layer_1" data-name="Layer 1" xmlns="http://www.w3.org/2000/svg" version="1.1" viewBox="0 0 180 180">
  <rect width="180" height="180" fill="#fff" stroke-width="0"/>
  <g>
    <path d="M38.8,146.8L27.4,19h125.1l-11.4,127.7-51.2,14.2-51.1-14.2Z" fill="#264de4" stroke-width="0"/>
    <path d="M131.4,138.6l9.7-109.1h-51.1v120.6l41.4-11.5Z" fill="#2965f1" stroke-width="0"/>
    <path d="M53.5,76.9l1.4,15.7h35.1v-15.7h-36.5ZM52.1,60.8h37.9v-15.7h-39.3l1.4,15.7ZM90,117.5h0s-17.4-4.7-17.4-4.7l-1.1-12.5h-15.7l2.2,24.6,32.1,8.9h0s0-16.3,0-16.3Z" fill="#ebebeb" stroke-width="0"/>
    <path d="M89.9,76.9v15.7h19.3l-1.8,20.3-17.5,4.7v16.3l32.1-8.9.2-2.6,3.7-41.2.4-4.2,2.8-31.7h-39.2v15.7h22.1l-1.4,16h-20.6Z" fill="#fff" stroke-width="0"/>
  </g>
</svg>