<?xml version="1.0" encoding="UTF-8"?>
<svg id="Layer_1" data-name="Layer 1" xmlns="http://www.w3.org/2000/svg" version="1.1" viewBox="0 0 180 180">
  <rect width="180" height="180" fill="#fff" stroke-width="0"/>
  <path d="M38.8,146.6L27.4,19h125.1l-11.4,127.6-51.3,14.4" fill="#e34f26" stroke-width="0"/>
  <path d="M90.1,149.9l41.3-11.4,9.7-109.3h-51.1" fill="#ef652a" stroke-width="0"/>
  <path d="M90.1,76.7h-20.8l-1.4-16.1h22.2v-15.5h-39.4l.3,4.2,3.9,43.3h35.2v-15.8ZM90.1,117.5h-.3l-17.5-4.7-1.1-12.5h-15.5l1.9,24.7,32.2,8.9h.3v-16.4Z" fill="#ebebeb" stroke-width="0"/>
  <path d="M89.9,76.7v15.8h19.4l-1.9,20.3-17.5,4.7v16.4l32.2-8.9.3-2.8,3.6-41.3.6-4.2h-36.6ZM89.9,45.1v15.5h38l.3-3.3.8-8,.3-4.2h-39.4Z" fill="#fff" stroke-width="0"/>
</svg>