<?xml version="1.0" encoding="UTF-8"?>
<svg id="Layer_1" data-name="Layer 1" xmlns="http://www.w3.org/2000/svg" version="1.1" viewBox="0 0 180 180">
  <path d="M0,0h180v180H0V0Z" fill="#f0db4f" stroke-width="0"/>
  <path d="M165.3,137.1c-1.3-8.2-6.7-15.1-22.5-21.5-5.5-2.5-11.7-4.3-13.5-8.5-.7-2.4-.7-3.8-.3-5.3,1.2-4.8,6.9-6.3,11.4-4.9,2.9,1,5.7,3.2,7.3,6.8,7.8-5,7.8-5,13.2-8.5-2-3.1-3-4.5-4.3-5.8-4.7-5.2-11-7.9-21.2-7.7-1.8.2-3.5.5-5.3.7-5.1,1.3-9.9,4-12.8,7.5-8.5,9.7-6.1,26.6,4.3,33.6,10.2,7.7,25.2,9.4,27.1,16.6,1.9,8.8-6.5,11.6-14.7,10.6-6.1-1.3-9.5-4.4-13.1-10q-6.7,3.9-13.7,7.9c1.6,3.6,3.4,5.2,6.1,8.3,13,13.2,45.7,12.6,51.5-7.4.2-.7,1.8-5.3.5-12.3ZM97.9,82.7h-16.8c0,14.5,0,29,0,43.5s.5,17.7-1,20.3c-2.5,5.1-8.8,4.5-11.8,3.5-3-1.5-4.5-3.5-6.2-6.5-.5-.8-.8-1.5-1-1.5-4.6,2.8-9.1,5.6-13.7,8.4,2.3,4.7,5.6,8.7,9.9,11.4,6.4,3.8,15,5,24.1,3,5.9-1.7,10.9-5.3,13.6-10.6,3.8-7.1,3-15.6,3-25.1,0-15.4,0-30.9,0-46.4h0Z" fill="#323330" stroke-width="0"/>
</svg>