<?xml version="1.0" encoding="UTF-8"?>
<svg id="Layer_1" data-name="Layer 1" xmlns="http://www.w3.org/2000/svg" version="1.1" viewBox="0 0 180 180">
  <rect width="180" height="180" fill="#fff" stroke-width="0"/>
  <path d="M150.1,56.1c0,.2,0,.3,0,.5v26.6c0,.7-.4,1.3-1,1.7l-22.3,12.8v25.5c0,.7-.4,1.3-1,1.7l-46.6,26.8c-.1,0-.2,0-.3.1,0,0,0,0-.1,0-.3,0-.7,0-1,0,0,0-.1,0-.2,0-.1,0-.2,0-.3-.1l-46.6-26.8c-.6-.3-1-1-1-1.7V43.4c0-.2,0-.3,0-.5,0,0,0-.1,0-.2,0-.1,0-.2.1-.3,0,0,0-.1.1-.2,0,0,.1-.2.2-.2,0,0,.1,0,.2-.1,0,0,.1-.1.2-.2h0l23.3-13.4c.6-.3,1.3-.3,1.9,0l23.3,13.4h0c0,0,.1.1.2.2,0,0,.1,0,.2.1,0,0,.1.2.2.2,0,0,0,.1.1.2,0,0,0,.2.1.3,0,0,0,.1,0,.2,0,.2,0,.3,0,.5v49.8l19.4-11.2v-25.5c0-.2,0-.3,0-.5,0,0,0-.1,0-.2,0-.1,0-.2.1-.3,0,0,0-.1.1-.2,0,0,.1-.2.2-.2,0,0,.1,0,.2-.1,0,0,.1-.1.2-.2h0l23.3-13.4c.6-.3,1.3-.3,1.9,0l23.3,13.4c0,0,.1.1.2.2,0,0,.1,0,.2.1,0,0,.1.2.2.2,0,0,0,.1.1.2,0,0,0,.2.1.3,0,0,0,.1,0,.2ZM146.3,82.1v-22.1l-8.1,4.7-11.3,6.5v22.1l19.4-11.2h0ZM123,122.1v-22.1l-11.1,6.3-31.6,18v22.3s42.7-24.6,42.7-24.6ZM33.7,46.8v75.3l42.7,24.6v-22.3l-22.3-12.6h0s0,0,0,0c0,0-.1-.1-.2-.2,0,0-.1,0-.2-.1h0c0,0-.1-.1-.2-.2,0,0-.1-.1-.1-.2h0c0,0,0-.2-.1-.2,0,0,0-.1,0-.2h0c0,0,0-.2,0-.3,0,0,0-.1,0-.2h0v-52.1l-11.3-6.5-8.1-4.7h0ZM55.1,32.2l-19.4,11.2,19.4,11.2,19.4-11.2-19.4-11.2h0ZM65.2,101.9l11.3-6.5v-48.7l-8.1,4.7-11.3,6.5v48.7s8.2-4.7,8.2-4.7ZM124.9,45.4l-19.4,11.2,19.4,11.2,19.4-11.2s-19.4-11.2-19.4-11.2ZM123,71.1l-11.3-6.5-8.1-4.7v22.1l11.3,6.5,8.2,4.7s0-22.1,0-22.1ZM78.4,120.9l28.5-16.2,14.2-8.1-19.4-11.2-22.3,12.9-20.3,11.7s19.4,11,19.4,11Z" fill="#ff2d20" fill-rule="evenodd" stroke-width="0"/>
</svg>