<?xml version="1.0" encoding="UTF-8"?>
<svg id="Layer_1" data-name="Layer 1" xmlns="http://www.w3.org/2000/svg" version="1.1" viewBox="0 0 180 180">
  <rect width="180" height="180" fill="#fff" stroke-width="0"/>
  <g id="Word_32x" data-name="Word 32x">
    <g id="icon">
      <path id="Path-28" d="M64.8,38.3h80.5c2.8,0,5,2.2,5.1,5v93.5c0,2.8-2.3,5-5.1,4.9h-80.5c-1.3,0-2.6-.5-3.6-1.4-.9-.9-1.5-2.2-1.5-3.5V43.3c0-1.3.5-2.6,1.5-3.5,1-.9,2.3-1.4,3.6-1.4h0Z" fill="#41a5ee" stroke-width="0"/>
      <path id="Path-29" d="M150.4,115.9H59.8v20.9c0,2.8,2.3,5,5.1,4.9h80.5c2.8,0,5-2.2,5.1-4.9h0s0-20.9,0-20.9Z" fill="#103f91" stroke-width="0"/>
      <path id="Rectangle-10" d="M59.8,90h90.6v25.9H59.8v-25.9Z" fill="#185abd" stroke-width="0"/>
      <path id="Rectangle-11" d="M59.8,64.2h90.6v25.9H59.8v-25.9Z" fill="#2b7cd3" stroke-width="0"/>
    </g>
    <g id="dropshadow-2" opacity=".7">
      <path id="Path-30" d="M91.9,59.4h-26.3c-1,0-1.9.8-1.9,1.8h0v57.6c0,1,.9,1.8,1.9,1.8h26.3c2.1,0,3.7-1.7,3.7-3.7v-53.7c0-2-1.6-3.7-3.6-3.7,0,0,0,0,0,0h0Z" fill="#000" isolation="isolate" opacity="0" stroke-width="0"/>
      <path id="Path-31" d="M84.9,69.1h-25.1v59.3h25.1c2.7,0,4.9-2.1,5-4.8v-49.9c-.1-2.6-2.4-4.7-5-4.6Z" fill="#000" isolation="isolate" opacity=".1" stroke-width="0"/>
      <path id="Path-32" d="M84.9,65.7h-25.1v59.3h25.1c2.7,0,4.9-2.1,5-4.8v-49.7c0-2.7-2.3-4.8-5-4.7Z" fill="#000" isolation="isolate" opacity=".2" stroke-width="0"/>
      <path id="Path-33" d="M90.4,60.6h-26.3c-1,0-1.9.8-1.9,1.8,0,0,0,0,0,0v57.5c0,1,.8,1.8,1.8,1.8,0,0,0,0,0,0h26.3c2.1,0,3.7-1.6,3.8-3.7v-53.8c0-2.1-1.7-3.7-3.8-3.7Z" fill="#000" isolation="isolate" opacity=".1" stroke-width="0"/>
      <path id="Path-34" d="M90.3,62.1h-26.3c-1,0-1.9.8-1.9,1.8h0v56.9c0,1,.8,1.8,1.8,1.8,0,0,0,0,0,0h26.3c2,0,3.7-1.6,3.8-3.6,0,0,0,0,0,0v-53.3c0-2.1-1.7-3.7-3.8-3.7,0,0,0,0,0,0h0Z" fill="#000" isolation="isolate" opacity=".1" stroke-width="0"/>
      <path id="Path-35" d="M86.1,57.8h-26.3v48.4h-.4v7.6c0,1,.8,1.8,1.8,1.8,0,0,0,0,0,0l21-3.8c2.1,0,7.7-1.7,7.7-3.8v-46.5c0-2-1.7-3.7-3.7-3.7,0,0,0,0,0,0h-.1Z" fill="#000" isolation="isolate" opacity="0" stroke-width="0"/>
      <path id="Path-36" d="M84.9,67.4h-25.1v59.3h25.1c2.7,0,4.9-2.1,5-4.7v-49.8c0-2.7-2.3-4.8-5-4.7Z" fill="#000" isolation="isolate" opacity=".2" stroke-width="0"/>
      <path id="Path-37" d="M84.9,62.2h-25.1v58.2h25.1c2.7.1,5-2,5.1-4.7,0-.1,0-.2,0-.3v-48.4c0-2.7-2.3-4.8-5-4.7,0,0,0,0,0,0Z" fill="#000" isolation="isolate" opacity=".3" stroke-width="0"/>
      <path id="Path-38" d="M84.9,62.2h-25.1v57.8h25.1c2.7,0,4.9-2,5.1-4.6v-48.4c0-2.7-2.3-4.8-5-4.7,0,0,0,0,0,0Z" fill="#000" isolation="isolate" opacity=".3" stroke-width="0"/>
      <path id="Path-39" d="M84.9,63.3h-25.1v59.4h25.1c2.7,0,4.9-2.1,5-4.7v-49.8c0-2.7-2.3-4.9-5-4.8,0,0,0,0,0,0Z" fill="#000" isolation="isolate" opacity=".3" stroke-width="0"/>
      <path id="Path-40" d="M84.9,64.5h-25.1v59.3h25.1c2.7,0,4.9-2.1,5-4.8v-49.6c0-2.7-2.2-4.9-4.9-4.9,0,0-.1,0-.2,0Z" fill="#000" isolation="isolate" opacity=".2" stroke-width="0"/>
      <path id="Path-41" d="M89.7,63.8h-26.3c-1,0-1.9.8-1.9,1.8h0v54c0,1,.9,1.9,1.9,1.8h26.3c2,0,3.7-1.6,3.7-3.7,0,0,0,0,0,0v-50.3c0-2.1-1.7-3.7-3.7-3.7Z" fill="#000" isolation="isolate" opacity=".1" stroke-width="0"/>
      <path id="Path-42" d="M86.8,63.8h-26.3c-.2,0-.5,0-.7,0v56.4c.2,0,.5,0,.7,0h26.3c2.1,0,3.8-1.6,3.8-3.7h0v-49c0-2.1-1.7-3.7-3.8-3.7h0Z" fill="#000" isolation="isolate" opacity=".2" stroke-width="0"/>
      <path id="Path-43" d="M80.2,60.6h-19.1c-1,0-1.9.8-1.9,1.8v54c0,1,.9,1.9,1.9,1.8h26.3c2.1,0,3.7-1.6,3.8-3.7v-48.7c0-2.2-5.1-3.4-5.7-4-1.6-.8-3.4-1.3-5.3-1.3Z" fill="#000" isolation="isolate" opacity=".3" stroke-width="0"/>
      <path id="Path-44" d="M88.5,66.5h-26.3c-1,0-1.9.8-1.9,1.8v54c0,1,.9,1.8,1.9,1.8h26.3c2.1,0,3.8-1.6,3.8-3.7h0v-50.3c0-2.1-1.7-3.7-3.7-3.7h0Z" fill="#000" isolation="isolate" opacity=".1" stroke-width="0"/>
      <path id="Path-45" d="M86.1,58.8h-26.3v48.3h-.4v7.6c0,1,.8,1.8,1.8,1.8,0,0,0,0,0,0l21-3.7c2.1,0,7.7-1.8,7.7-3.8v-46.5c0-2.1-1.8-3.7-3.9-3.6h0Z" fill="#000" isolation="isolate" opacity=".1" stroke-width="0"/>
      <path id="Path-46" d="M86.1,59.8h-26.3v48.2h-.4v7.6c0,1,.8,1.8,1.8,1.8,0,0,0,0,0,0l21-3.7c2.1,0,7.7-1.8,7.7-3.8v-46.4c0-2.1-1.8-3.7-3.9-3.6,0,0,0,0,0,0h0Z" fill="#000" isolation="isolate" opacity=".2" stroke-width="0"/>
    </g>
    <path id="Back_Plate-2" data-name="Back Plate-2" d="M34.6,60.5h50.3c2.7,0,5,2.2,5,4.9v49.2c0,2.8-2.3,5-5,5h-50.3c-1.3,0-2.6-.6-3.6-1.5-.9-.9-1.5-2.2-1.5-3.5v-49.3c0-2.7,2.3-4.9,5-4.9Z" fill="#185abd" stroke-width="0"/>
    <path id="Letter" d="M75.3,108.5h-6.8l-7.9-25.5-8.3,25.5h-6.8l-7.6-36.9h6.8l5.3,25.9,7.9-25.1h5.7l7.6,25.1,5.3-25.9h6.4l-7.6,36.9Z" fill="#fff" stroke-width="0"/>
  </g>
</svg>