<?xml version="1.0" encoding="UTF-8"?>
<svg id="Layer_1" data-name="Layer 1" xmlns="http://www.w3.org/2000/svg" version="1.1" viewBox="0 0 180 180">
  <rect width="180" height="180" fill="#fff" stroke-width="0"/>
  <g id="Powerpoint_32x" data-name="Powerpoint 32x">
    <path id="Circle" d="M98.7,29c33.6,0,60.9,27.2,61,60.8h0c0,33.7-27.3,61-60.9,61.1h0c-33.7,0-61-27.3-61-61h0c0-33.7,27.3-60.9,60.9-61Z" fill="#d35230" stroke-width="0"/>
    <path id="Path-145" d="M98.7,29c-33.6,0-60.9,27.3-61,61h61V29Z" fill="#ed6c47" stroke-width="0"/>
    <path id="Path-146" d="M98.7,29c33.6,0,60.9,27.3,61,61h-61V29Z" fill="#ff8f6b" stroke-width="0"/>
    <g id="dropshadow-7" opacity=".7">
      <path id="Path-147" d="M49.5,126.1h42.2c2.5.2,4.6-1.7,4.8-4.2,0,0,0-.1,0-.2v-63.6c0-2.5-2.1-4.4-4.6-4.3,0,0,0,0,0,0h-42.4c-5.3,7.1-9,15.3-10.8,24v24.2c1.8,8.8,5.5,17.1,10.8,24.2v-.2Z" fill="#000" isolation="isolate" opacity="0" stroke-width="0"/>
      <path id="Path-148" d="M58.1,135.3h25.4c3.5,0,6.1-7.3,6.1-10.6v-53.7c-.2-3.2-2.9-5.6-6.1-5.6h-40.4c-10.7,24.1-4.6,52.4,15.2,69.9h-.1Z" fill="#000" isolation="isolate" opacity=".1" stroke-width="0"/>
      <path id="Path-149" d="M54.1,131.2h29.5c3.1,0,5.6-2.5,5.9-5.6v-58.7c-.2-3.2-2.9-5.6-6.1-5.6h-38.4c-12.2,22.9-8.5,51,9.2,69.9Z" fill="#000" isolation="isolate" opacity=".2" stroke-width="0"/>
      <path id="Path-150" d="M50.8,127.5h39.4c2.5,0,4.6-1.9,4.7-4.3v-63.6c0-2.5-2.1-4.5-4.6-4.5h-41.5c-15.4,21.9-14.6,51.4,2.1,72.4h0Z" fill="#000" isolation="isolate" opacity=".1" stroke-width="0"/>
      <path id="Path-151" d="M50.6,128.6h38.4c2.6,0,4.6-5.7,4.6-8.1v-59c0-2.5-2.1-4.4-4.6-4.3,0,0,0,0,0,0h-42.4c-14.4,22.2-12.8,51.1,4,71.5Z" fill="#000" isolation="isolate" opacity=".1" stroke-width="0"/>
      <path id="Path-152" d="M45.2,119.1l34.9-3.5c2.5,0,9.4-2.1,9.4-4.5v-54.7c0-2.5-2.1-4.4-4.6-4.4h-33.6c-15.4,19.1-17.8,45.6-6.1,67.1h0Z" fill="#000" isolation="isolate" opacity="0" stroke-width="0"/>
      <path id="Path-153" d="M55.8,133.2h27.7c3.2,0,5.8-2.4,6-5.6v-58.8c-.2-3.2-2.9-5.6-6.1-5.6h-39.4c-11.6,23.4-6.9,51.6,11.7,69.9h0Z" fill="#000" isolation="isolate" opacity=".2" stroke-width="0"/>
      <path id="Path-154" d="M49.3,125.6h34.1c3.2,0,5.8-2.5,6-5.6v-57.2c-.3-3.2-2.9-5.6-6.1-5.6h-35.8c-13.7,21-12.9,48.2,1.8,68.4h-.1Z" fill="#000" isolation="isolate" opacity=".3" stroke-width="0"/>
      <path id="Path-155" d="M49.1,125.3h34.3c3.2,0,5.8-2.5,6.1-5.7v-56.9c-.3-3.2-2.9-5.6-6.1-5.6h-35.8c-13.6,20.9-13,47.9,1.6,68.1h0Z" fill="#000" isolation="isolate" opacity=".3" stroke-width="0"/>
      <path id="Path-156" d="M51.5,128.4h31.8c3.2,0,5.9-2.4,6.2-5.6v-58.7c-.2-3.2-2.9-5.6-6.1-5.7h-36.8c-13.4,22-11.4,50,4.9,69.9Z" fill="#000" isolation="isolate" opacity=".3" stroke-width="0"/>
      <path id="Path-157" d="M52.7,129.8h30.8c3.2,0,5.8-2.4,6-5.6v-58.7c-.2-3.2-2.9-5.6-6.1-5.6h-37.6c-12.9,22.4-10.2,50.5,6.8,69.9h0Z" fill="#000" isolation="isolate" opacity=".2" stroke-width="0"/>
      <path id="Path-158" d="M49.6,127.3h38.9c2.6,0,4.6-4.2,4.6-6.6v-57c0-2.5-2.1-4.4-4.6-4.3,0,0,0,0,0,0h-43.1c-12.8,21.3-11.1,48.4,4.2,67.9Z" fill="#000" isolation="isolate" opacity=".1" stroke-width="0"/>
      <path id="Path-159" d="M49.4,125.7h36.5c2.5,0,4.5-1.8,4.6-4.3,0,0,0,0,0,0v-57.9c0-2.5-2.1-4.4-4.6-4.3,0,0,0,0,0,0h-39.5c-12.5,20.8-11.3,47,3,66.6h0Z" fill="#000" isolation="isolate" opacity=".2" stroke-width="0"/>
      <path id="Path-160" d="M47.8,123.4h38.5c2.5,0,4.5-1.9,4.6-4.3,0,0,0,0,0,0v-57.6c0-2.6-6.3-4-7.1-4.8-2-1-4.2-1.5-6.4-1.5h-28.9c-14.2,20.4-14.5,47.5-.7,68.2Z" fill="#000" isolation="isolate" opacity=".3" stroke-width="0"/>
      <path id="Path-161" d="M53.1,130.3h34.6c2.5,0,4.5-1.9,4.6-4.4,0,0,0,0,0,0v-59.3c0-2.4-2.1-4.4-4.6-4.3h-43.2c-11.6,22.2-8.2,49.3,8.6,68h0Z" fill="#000" isolation="isolate" opacity=".1" stroke-width="0"/>
      <path id="Path-162" d="M45.9,120.2l34.2-3.5c2.5,0,9.4-2.1,9.4-4.5v-54.6c0-2.5-2.1-4.5-4.6-4.5,0,0,0,0,0,0h-34.6c-15,19.4-16.7,45.9-4.4,67.1Z" fill="#000" isolation="isolate" opacity=".1" stroke-width="0"/>
      <path id="Path-163" d="M46.5,121.2l33.6-3.5c2.5,0,9.4-2.1,9.4-4.5v-49.5c0-2.4-4.3-9.6-9.1-9.6h-30.9c-14.6,19.7-15.8,46.2-3,67.1h0Z" fill="#000" isolation="isolate" opacity=".2" stroke-width="0"/>
    </g>
    <path id="Back_Plate-7" data-name="Back Plate-7" d="M26.1,55.2h58.1c3.2,0,5.8,2.6,5.8,5.8v58.1c0,3.2-2.6,5.8-5.8,5.8,0,0,0,0,0,0H26.1c-3.2,0-5.8-2.5-5.8-5.7,0,0,0,0,0,0v-58.1c0-3.2,2.6-5.8,5.8-5.8,0,0,0,0,0,0Z" fill="#c43e1c" stroke-width="0"/>
    <path id="Shape-5" d="M55.3,68.2c4.3-.3,8.6.9,12.1,3.5,2.9,2.6,4.4,6.3,4.2,10.1,0,2.5-.7,5-2.1,7.1-1.4,2.2-3.4,4-5.8,5.2-2.8,1.3-5.8,1.9-8.8,1.8h-8.3v15.8h-8.5v-43.5h17.3ZM46.4,88.6h7.3c2.3.1,4.6-.5,6.5-1.9,1.5-1,2.3-2.7,2.2-4.5,0-4.8-2.8-7.1-8.4-7.1h-7.6v13.5Z" fill="#f9f7f7" stroke-width="0"/>
  </g>
</svg>