<?xml version="1.0" encoding="UTF-8"?>
<svg id="Layer_1" data-name="Layer 1" xmlns="http://www.w3.org/2000/svg" version="1.1" viewBox="0 0 180 180">
  <rect width="180" height="180" fill="#fff" stroke-width="0"/>
  <g id="Excel_32x" data-name="Excel 32x">
    <path id="Path-47" d="M64.8,34.7h80.5c1.4,0,2.6.5,3.6,1.5.9,1,1.5,2.3,1.5,3.7v99.9c0,1.4-.5,2.7-1.5,3.7-.9,1-2.2,1.5-3.6,1.5h-80.5c-2.8,0-5.1-2.4-5-5.2,0,0,0,0,0,0V39.9c0-2.8,2.2-5.2,5-5.3h0Z" fill="#21a366" stroke-width="0"/>
    <path id="Path-48" d="M59.8,89.9v50.1c-.1,2.8,2,5.2,4.8,5.4,0,0,0,0,0,0h80.7c2.8,0,5.1-2.4,5-5.2,0,0,0,0,0,0v-50.1H59.8Z" fill="#185c37" stroke-width="0"/>
    <path id="Rectangle-12" d="M59.8,62.3h90.6v27.6H59.8v-27.6Z" fill="#107c41" stroke-width="0"/>
    <path id="Path-49" d="M145.3,34.7h-40.3v82.8h45.3V39.9c0-1.4-.5-2.7-1.5-3.7-.9-1-2.2-1.5-3.6-1.5Z" fill="#33c481" stroke-width="0"/>
    <path id="Rectangle-13" d="M105.1,62.3h45.3v27.6h-45.3v-27.6Z" fill="#21a366" stroke-width="0"/>
    <path id="Rectangle-14" d="M105.1,89.9h45.3v27.6h-45.3v-27.6Z" fill="#107c41" stroke-width="0"/>
    <g id="dropshadow-3" opacity=".7">
      <path id="Path-50" d="M91.8,57.2h-26.3c-1.1,0-1.9.9-1.9,2v61.4c0,1.1.8,2,1.9,2,0,0,0,0,0,0h26.3c2.1,0,3.8-1.8,3.8-3.9,0,0,0,0,0,0v-57.5c0-2.1-1.6-3.9-3.8-3.9,0,0,0,0,0,0Z" fill="#000" isolation="isolate" opacity="0" stroke-width="0"/>
      <path id="Path-51" d="M84.9,67.6h-25v63.4h25c2.8,0,5.1-2.3,5.1-5.1v-53.2c0-2.8-2.3-5-5.1-5Z" fill="#000" isolation="isolate" opacity=".1" stroke-width="0"/>
      <path id="Path-52" d="M84.9,63.9h-25v63.3h25c2.8,0,5.1-2.3,5.1-5.1v-53.2c0-2.8-2.3-5-5.1-5Z" fill="#000" isolation="isolate" opacity=".2" stroke-width="0"/>
      <path id="Path-53" d="M90.4,58.5h-26.3c-1,0-1.9.9-1.9,1.9v61.4c0,1.1.8,1.9,1.8,2,0,0,0,0,0,0h26.3c2.1,0,3.8-1.8,3.8-3.9,0,0,0,0,0,0v-57.5c0-2.1-1.6-3.8-3.7-3.9,0,0,0,0,0,0h0Z" fill="#000" isolation="isolate" opacity=".1" stroke-width="0"/>
      <path id="Path-54" d="M90.3,60.1h-26.3c-1.1,0-1.9.9-1.9,2,0,0,0,0,0,0v60.8c0,1.1.8,1.9,1.9,2h26.3c2.1,0,3.7-1.9,3.7-4,0,0,0,0,0,0v-56.8c0-2.1-1.6-3.9-3.7-3.9Z" fill="#000" isolation="isolate" opacity=".1" stroke-width="0"/>
      <path id="Path-55" d="M86.1,55.4h-26.3v51.5h-.4v8.1c0,1.1.8,1.9,1.9,1.9h0l20.9-4c2.1,0,7.7-1.9,7.7-4v-49.6c0-2.1-1.6-3.9-3.8-3.9,0,0,0,0,0,0Z" fill="#000" isolation="isolate" opacity="0" stroke-width="0"/>
      <path id="Path-56" d="M84.9,65.7h-25v63.3h25c2.8,0,5.1-2.3,5.1-5.1v-53.2c0-2.8-2.3-5-5.1-5Z" fill="#000" isolation="isolate" opacity=".2" stroke-width="0"/>
      <path id="Path-57" d="M85,60.1h-25v61.9h25c2.8,0,5-2.3,5-5.1v-51.8c0-2.8-2.3-5.1-5-5.1Z" fill="#000" isolation="isolate" opacity=".3" stroke-width="0"/>
      <path id="Path-58" d="M84.9,60.1h-25v61.7h25c2.8,0,5.1-2.3,5.1-5.1v-51.6c0-2.8-2.3-5.1-5.1-5.1Z" fill="#000" isolation="isolate" opacity=".3" stroke-width="0"/>
      <path id="Path-59" d="M84.9,61.4h-25v63.3h25c2.8,0,5.1-2.2,5.1-5,0,0,0,0,0,0v-53.2c0-2.8-2.3-5-5.1-5Z" fill="#000" isolation="isolate" opacity=".3" stroke-width="0"/>
      <path id="Path-60" d="M84.9,62.6h-25v63.3h25c2.8,0,5.1-2.3,5.1-5.1v-53.2c0-2.8-2.3-4.9-5.1-4.9Z" fill="#000" isolation="isolate" opacity=".2" stroke-width="0"/>
      <path id="Path-61" d="M89.7,62.1h-26.3c-1.1,0-1.9.9-1.9,1.9,0,0,0,0,0,0v57.5c0,1.1.8,2,1.9,2h26.3c2.1,0,3.8-1.8,3.8-3.9,0,0,0,0,0,0v-53.7c0-2.1-1.7-3.8-3.8-3.8h0Z" fill="#000" isolation="isolate" opacity=".1" stroke-width="0"/>
      <path id="Path-62" d="M86.8,62.1h-26.3c-.2,0-.5,0-.7,0v60c.2,0,.5,0,.7,0h26.3c2.1,0,3.8-1.8,3.8-3.9,0,0,0,0,0,0v-52.2c0-2.1-1.6-3.9-3.7-3.9,0,0,0,0,0,0v.2Z" fill="#000" isolation="isolate" opacity=".2" stroke-width="0"/>
      <path id="Path-63" d="M80.2,58.5h-19.2c-1.1,0-1.9.9-1.9,1.9,0,0,0,0,0,0v57.6c0,1,.8,1.9,1.9,1.9h26.3c2.1,0,3.8-1.8,3.8-3.9v-51.9c0-2.3-5.1-3.6-5.7-4.3-1.6-.9-3.4-1.3-5.3-1.3h0Z" fill="#000" isolation="isolate" opacity=".3" stroke-width="0"/>
      <path id="Path-64" d="M88.5,64.7h-26.3c-1.1,0-1.9.9-1.9,2v57.6c0,1.1.8,2,1.9,2,0,0,0,0,0,0h26.3c2.1,0,3.8-1.8,3.8-3.9v-53.8c0-2.1-1.6-3.9-3.7-3.9h0Z" fill="#000" isolation="isolate" opacity=".1" stroke-width="0"/>
      <path id="Path-65" d="M86.1,56.5h-26.3v51.6h-.4v8.1c0,1.1.8,1.9,1.8,2,0,0,0,0,0,0l20.9-4c2.1,0,7.7-1.9,7.7-4v-49.6c0-2.1-1.6-3.9-3.8-3.9,0,0,0,0,0,0Z" fill="#000" isolation="isolate" opacity=".1" stroke-width="0"/>
      <path id="Path-66" d="M86.1,57.5h-26.3v51.5h-.4v8c0,1.1.8,1.9,1.8,2,0,0,0,0,0,0l20.9-4c2.1,0,7.7-1.9,7.7-4v-49.5c0-2.1-1.6-3.9-3.8-3.9,0,0,0,0,0,0Z" fill="#000" isolation="isolate" opacity=".2" stroke-width="0"/>
    </g>
    <path id="Back_Plate-3" data-name="Back Plate-3" d="M34.6,58.3h50.3c2.8,0,5.1,2.4,5,5.3v52.6c.1,2.8-2.1,5.2-4.9,5.4h-50.4c-2.8,0-5.1-2.4-5-5.2,0,0,0,0,0,0v-52.7c0-2.8,2.2-5.2,5-5.3Z" fill="#107c41" stroke-width="0"/>
    <path id="Path-67" d="M43.3,109.6l11.9-19.3-10.9-19.1h8.8l5.9,12.2c.4.9.8,1.8,1.1,2.7.4-.9.8-1.8,1.3-2.7l6.3-12.1h8l-11.1,19,11.4,19.3h-8.6l-6.9-13.3c-.3-.6-.6-1.2-.8-1.8-.2.6-.5,1.2-.8,1.7l-7,13.4h-8.5Z" fill="#fff" stroke-width="0"/>
  </g>
</svg>