<?xml version="1.0" encoding="UTF-8"?>
<svg id="Layer_1" data-name="Layer 1" xmlns="http://www.w3.org/2000/svg" version="1.1" viewBox="0 0 180 180">
  <rect width="180" height="180" fill="#fff" stroke-width="0"/>
  <g>
    <path d="M31.3,85.9c-2.1-9.4-6.6-11.9-7.7-13.7-.5-.8-.9-1.6-1.2-2.4,0,.8-.2,1.4-.9,2-1.4,1.3-7.5,6.2-8,16.9-.5,10,7.3,16.1,8.4,16.7.8.4,1.8,0,2.2-.3,3.8-2.6,8.9-9.5,7.2-19.2" fill="#10aa50" stroke-width="0"/>
    <path d="M22.7,100.1c-.2,2.5-.3,3.9-.8,5.3,0,0,.3,2.3.6,4.8h.8c.2-1.8.5-3.5.9-5.2-1.1-.5-1.4-2.8-1.4-4.9Z" fill="#b8c4c2" stroke-width="0"/>
    <path d="M24.1,105h0c-1.1-.5-1.4-2.8-1.4-4.9.3-3.5.3-7.1.2-10.6,0-1.9,0-17.2-.5-19.5.3.8.7,1.5,1.1,2.2,1.1,1.8,5.6,4.3,7.7,13.7,1.7,9.7-3.4,16.6-7.2,19.2Z" fill="#12924f" stroke-width="0"/>
    <path d="M164.2,101.6c-1.3,0-2.3-1-2.3-2.3,0-1.3,1-2.3,2.3-2.3,1.3,0,2.3,1,2.3,2.3,0,1.3-1,2.3-2.2,2.3,0,0,0,0,0,0M164.2,97.2c-1.2,0-2.1.9-2.1,2.1,0,1.2.9,2.1,2.1,2.1,1.2,0,2.1-.9,2.1-2.1,0,0,0,0,0,0,0-1.1-.9-2.1-2-2.1,0,0,0,0,0,0M164.8,100.8l-.6-1.3h-.5v1.3h-.3v-2.9h.9c.6,0,.9.3.9.8s-.2.7-.6.8l.6,1.3h-.4ZM163.7,99.2h.5c.4,0,.6-.1.6-.5s-.1-.5-.6-.5h-.5v1Z" fill="#21313c" stroke-width="0"/>
    <path d="M129.9,99.5c.6.5,1.9.7,3,.7s2.8-.3,4.2-1.5c1.4-1.3,2.3-3.2,2.3-6.3s-1.1-5.4-3.4-6.8c-1.3-.8-3-1.1-4.9-1.1s-1.1,0-1.5.2c-.1.1-.2.3-.3.4,0,.5,0,4.6,0,6.9s0,5.8,0,6.3c0,.4.2,1,.6,1.2M123.9,83.2c.5,0,2.4,0,3.3,0,1.7,0,2.8,0,5.9,0s4.8.7,6.4,2.1c1.9,1.6,2.9,3.9,2.9,6.7,0,4-1.8,6.3-3.6,7.6-1.8,1.4-4.2,2.1-7.5,2.1s-4.8,0-7.4,0h0c-.1-.2.2-1.2.4-1.2.7,0,.9-.1,1.2-.2.5-.2.7-.5.7-1.5,0-1.8,0-4,0-6.5s0-5.2,0-6.3c0-.9-.5-1.1-1.3-1.3-.6-.1-1.1-.2-1.7-.3,0-.2.4-1,.5-1.1" fill="#21313c" stroke-width="0"/>
    <path d="M149.9,84.7c-.1,0-.3.3-.3.5,0,1.1,0,3.8,0,5.7,0,0,0,.1.1.1.4,0,1.3,0,2.1,0s1.8-.1,2.1-.3c1-.5,1.4-1.5,1.4-2.6,0-2.6-1.8-3.5-4.4-3.5-.4,0-.7,0-1.1,0M156.6,96.4c0-2.6-1.9-4.1-5.4-4.1s-1.3,0-1.5,0c0,0-.2,0-.2.1,0,1.9,0,4.8,0,6,0,.5.4,1.2.9,1.4.5.3,1.5.3,2.3.3,2.1,0,3.9-1.1,3.9-3.9M144.5,83.2c.3,0,1.1,0,3.1,0s3.4,0,5.3,0,5.4.8,5.4,4.2-1.2,3-2.7,3.7c0,0,0,0,0,.1,2.2.6,4.1,1.9,4.1,4.5s-1.6,4.1-3.9,5.1c-1.4.6-3.1.8-4.9.8s-4.9-.1-6.9-.1c-.2,0,.2-1,.4-1.2.5,0,.9,0,1.3-.2.7-.2.8-.4.9-1.5,0-.9,0-4.2,0-6.5s0-5.3,0-6.4c0-.8-.3-1.1-.9-1.2-.4,0-1.2-.2-1.8-.3-.1-.1.3-1,.5-1.1" fill="#21313c" stroke-width="0"/>
    <path d="M37.9,101.6c0-.2-.1-.4,0-.6,0-.1,0-.3,0-.4.4,0,.8-.1,1.1-.2.5-.1.7-.4.8-1.1,0-1.6,0-4.6,0-6.7h0c0-.3,0-.6-.3-.8-.5-.3-1-.5-1.6-.7-.2,0-.4-.2-.4-.4s.2-.3.5-.4c.9,0,3.1-.6,4-1,0,.1.1.3.1.4,0,0,0,.2,0,.3,0,.3,0,.6,0,1,0,.1.1.2.2.2,0,0,0,0,.1,0,1.7-1.3,3.2-1.8,4-1.8,1.3,0,2.3.6,3,1.9,0,0,.1.1.2.1,0,0,.1,0,.2,0,1.6-1.2,3.1-1.9,4.1-1.9,2.4,0,3.9,1.8,3.9,4.9s0,2,0,3c0,.9,0,1.8,0,2.4s.2.5.5.6c.4.2.9.3,1.5.4h0c0,.2,0,.9-.2,1-.2,0-.4,0-.7,0-.5,0-1.2,0-2,0-1.6,0-2.5,0-3.3,0,0-.2,0-.9,0-1,.3,0,.7-.1,1-.2.5-.2.7-.4.7-1.1,0-.5.1-4.8,0-5.8-.2-1.1-.9-2.3-2.7-2.3s-1.7.3-2.7,1c0,0,0,.2,0,.3h0c.1.6.1,1.2.1,2.2s0,1.1,0,1.7c0,1.2,0,2.3,0,3.1,0,.6.3.7.6.8.2,0,.3,0,.4,0,.2,0,.5.1.8.2,0,.2,0,.5,0,.7,0,0,0,.2-.1.3-.9,0-1.8,0-3.2,0s-1.1,0-1.6,0c-.5,0-.9,0-1.2,0,0-.2,0-.3,0-.5,0-.2,0-.3,0-.5h.4c.3-.1.6-.2.8-.2.4-.1.6-.4.6-.9,0-1.3.2-5.1,0-6-.3-1.5-1.2-2.3-2.6-2.3s-1.8.4-2.7,1c-.2.2-.3.4-.2.6v1.6c0,1.9,0,4.2,0,5.3,0,.3.1.7.7.8.1,0,.4,0,.6.1.1,0,.3,0,.5,0,0,.3,0,.7,0,1-.3,0-.6,0-.9,0-.6,0-1.3,0-2,0s-1.6,0-2.1,0c-.3,0-.7,0-1,0" fill="#21313c" stroke-width="0"/>
    <path d="M67.7,90.6c-.5,0-1,.1-1.4.4-1,.6-1.6,1.9-1.6,3.7,0,3.4,1.7,5.9,4.2,5.9.7,0,1.3-.2,1.8-.6.8-.6,1.2-1.9,1.2-3.7,0-3.4-1.7-5.7-4.2-5.7M68.2,101.9c-4.5,0-6.1-3.3-6.1-6.3s.9-3.8,2.6-5c1.2-.7,2.6-1.2,4-1.2,3.4,0,5.8,2.5,5.8,6s-1,4.3-2.8,5.4c-.9.5-2.4,1.1-3.6,1.1" fill="#21313c" stroke-width="0"/>
    <path d="M113.2,90.6c-.5,0-1,.1-1.4.4-1,.6-1.6,1.9-1.6,3.7,0,3.4,1.7,5.9,4.2,5.9.7,0,1.3-.2,1.8-.6.8-.6,1.2-1.9,1.2-3.7,0-3.4-1.7-5.7-4.2-5.7M113.7,101.9c-4.5,0-6.1-3.3-6.1-6.3s.9-3.8,2.6-5c1.2-.7,2.6-1.2,4-1.2,3.4,0,5.8,2.5,5.8,6s-1,4.3-2.8,5.4c-.9.5-2.4,1.1-3.6,1.1" fill="#21313c" stroke-width="0"/>
    <path d="M98.2,90.5c-1.4,0-2.3,1.1-2.3,2.8s.8,3.7,2.9,3.7,1-.2,1.4-.5c.5-.5.8-1.4.8-2.4,0-2.2-1.1-3.5-2.9-3.5M98,102.1c-.4,0-.8,0-1.1.3-1.1.7-1.6,1.4-1.6,2.2s.3,1.4.9,1.9c.8.6,1.8,1,3.2,1,2.7,0,3.9-1.4,3.9-2.9s-.5-1.7-1.5-2c-.8-.3-2.1-.4-3.7-.4M98.2,108.9c-1.6,0-2.8-.3-3.7-1.1-1-.7-1.4-1.8-1.4-2.6,0-.5.2-1,.5-1.3.3-.3.9-.9,2.4-1.9,0,0,0,0,0-.1,0,0,0-.1,0-.1-1.2-.5-1.6-1.3-1.7-1.7,0,0,0,0,0,0,0-.2,0-.3.2-.5.2-.1.4-.3.7-.5.4-.2.8-.5,1.2-.8,0,0,0-.2,0-.3,0,0,0,0,0,0-1.8-.6-2.7-2-2.7-4,0-1.3.6-2.5,1.7-3.3.7-.6,2.6-1.3,3.8-1.3h0c1.2,0,1.9.3,2.9.6.5.2,1.1.3,1.7.3,1,0,1.5-.3,1.8-.7,0,.2,0,.3,0,.5,0,.4,0,.9-.3,1.2-.2.3-.7.5-1.1.5s0,0-.1,0c-.2,0-.5,0-.7-.1h-.1c0,0,0,.2,0,.2,0,0,0,0,0,0,0,.4.1.7.2,1.1,0,2.2-.9,3.1-1.8,3.8-.9.7-2,1.1-3.1,1.2h0s-.1,0-.4,0c-.1,0-.3,0-.3,0h0c-.2,0-.7.3-.7.8s.2.9,1.4.9h.7c1.5.2,3.4.3,4.2.6,1.2.4,2,1.6,2,2.8,0,1.9-1.4,3.8-3.7,4.9-1.1.5-2.3.8-3.5.8" fill="#21313c" stroke-width="0"/>
    <path d="M91.3,100.6c-.7,0-1.1-.2-1.7-.4-.1-.1-.2-.3-.2-.4,0-.9,0-3.6,0-5.3s-.2-2.6-.8-3.5c-.7-1-1.7-1.6-3-1.6s-2.7.8-4,1.9c0,0-.2.2-.2,0s0-.9,0-1.3c0-.2,0-.4-.2-.5-.8.4-3.2,1-4,1.1-.6.1-.8.7-.1.9h0c.5.1,1.1.4,1.5.7.3.2.2.5.2.7,0,2,0,5,0,6.6,0,.6-.2.9-.7,1h0c-.4,0-.7.1-1.1.2-.1.1-.1,1,0,1.2.3,0,1.8,0,3.1,0s2.6,0,3.1,0c.2-.2.2-1,.1-1.2-.4,0-.8,0-1.2-.2-.5-.1-.6-.4-.6-.9,0-1.4,0-4.3,0-6.3s.1-.8.3-1c.6-.5,1.6-.9,2.4-.9s1.4.3,1.8.6c.5.4.8,1,.9,1.7.1,1.1,0,3.4,0,5.3s0,1.3-.5,1.4c-.2,0-.7.2-1.2.2-.2.2-.1,1,0,1.2.8,0,1.7,0,3,0s2.7,0,3.1,0c.2-.2.2-1,.1-1.2" fill="#21313c" stroke-width="0"/>
  </g>
</svg>