<?xml version="1.0" encoding="UTF-8"?>
<svg id="Unique_Layer_1" data-name="Unique_Layer_1" xmlns="http://www.w3.org/2000/svg" version="1.1" xmlns:xlink="http://www.w3.org/1999/xlink" viewBox="0 0 180 180">
  <defs>
    <clipPath id="unique_clippath">
      <rect x="19.5" y="53.4" width="140.9" height="73.2" fill="none" stroke-width="0"/>
    </clipPath>
  </defs>
  <rect width="180" height="180" fill="#fff" stroke-width="0"/>
  <g>
    <g clip-path="url(#unique_clippath)">
      <path d="M19.6,120h4.6v-18.4l7.3,16c.8,1.9,2,2.6,4.3,2.6s3.4-.7,4.3-2.6l7.2-16v18.4h4.7v-18.4c0-1.8-.7-2.6-2.2-3.1-3.5-1.1-5.9-.1-7,2.3l-7.1,15.9-6.9-15.9c-1-2.4-3.4-3.3-7-2.3-1.5.5-2.2,1.3-2.2,3.1v18.4h0ZM55.8,105.1h4.7v10.1c0,.6.2,1.9,2.7,1.9,1.3,0,10.1,0,10.2,0v-12.1h4.7v16.5c0,4.1-5,5-7.4,5h-14.7v-3.1h14.8c3-.3,2.6-1.8,2.6-2.3v-1.2h-9.9c-4.6,0-7.6-2.1-7.6-4.4,0-.2.1-10.4,0-10.4h0ZM156.2,93.3c-2.9,0-5.1.2-6.9,1-.5.2-1.4.2-1.5.9.3.3.3.7.6,1.1.4.7,1.2,1.7,1.9,2.2.8.6,1.5,1.1,2.3,1.6,1.4.9,3,1.4,4.3,2.2.8.5,1.6,1.1,2.4,1.7.4.3.6.8,1.1.9h0c-.3-.4-.3-.9-.6-1.3-.4-.4-.7-.7-1.1-1-1-1.4-2.3-2.6-3.7-3.6-1.1-.8-3.6-1.9-4.1-3.2h0c.8-.1,1.7-.4,2.5-.6,1.2-.3,2.3-.2,3.6-.6.6-.1,1.1-.3,1.7-.5v-.3c-.6-.6-1.1-1.5-1.8-2.1-1.8-1.6-3.8-3.1-5.9-4.4-1.1-.7-2.5-1.2-3.7-1.8-.4-.2-1.1-.3-1.4-.7-.6-.8-1-1.8-1.5-2.8-1-2-2-4.1-2.9-6.2-.6-1.4-1-2.8-1.8-4.1-3.7-6.1-7.7-9.8-13.8-13.4-1.3-.8-2.9-1.1-4.6-1.5-.9,0-1.8-.1-2.7-.1-.6-.2-1.1-.9-1.6-1.3-2-1.3-7.3-4.1-8.8-.4-1,2.3,1.4,4.6,2.3,5.8.6.8,1.4,1.8,1.8,2.7.2.6.3,1.3.6,1.9.6,1.6,1.1,3.3,1.9,4.8.4.8.8,1.5,1.3,2.2.3.4.8.6.9,1.2-.5.7-.5,1.8-.8,2.7-1.3,4-.8,9,1,12,.6.9,1.9,2.9,3.8,2.1,1.6-.6,1.3-2.7,1.7-4.5.1-.4,0-.7.2-1h0c.5,1.1,1,2,1.5,3,1.1,1.8,3,3.6,4.6,4.8.9.6,1.5,1.8,2.6,2.1h0c0-.1,0-.1,0-.1-.2-.3-.5-.5-.8-.7-.6-.6-1.4-1.4-1.9-2.1-1.5-2-2.8-4.2-4-6.5-.6-1.1-1.1-2.3-1.5-3.4-.2-.4-.2-1.1-.6-1.3-.5.8-1.3,1.5-1.7,2.4-.7,1.5-.7,3.4-1,5.4-.1,0,0,0-.1,0-1.1-.3-1.5-1.5-2-2.5-1.1-2.5-1.3-6.6-.3-9.5.2-.8,1.3-3.1.9-3.8-.2-.7-.9-1.1-1.3-1.6-.5-.7-1-1.5-1.3-2.3-.9-2-1.3-4.2-2.2-6.2-.4-.9-1.2-1.9-1.8-2.8-.7-1-1.4-1.6-2-2.8-.2-.4-.4-1-.1-1.5,0-.3.2-.4.5-.5.5-.4,1.8.1,2.3.3,1.3.5,2.4,1,3.5,1.8.5.4,1,1,1.7,1.2h.8c1.1.2,2.4,0,3.5.4,1.9.6,3.6,1.5,5.1,2.5,4.7,3,8.5,7.2,11.2,12.2.4.8.6,1.6,1,2.4.8,1.8,1.7,3.5,2.4,5.3.8,1.7,1.5,3.4,2.5,4.8.5.8,2.7,1.1,3.6,1.5.7.3,1.8.6,2.5,1,1.2.8,2.4,1.6,3.6,2.4.6.4,2.4,1.3,2.5,2h0ZM156.2,93.3" fill="#00678c" fill-rule="evenodd" stroke-width="0"/>
    </g>
    <path d="M119.8,62.3c-.6,0-1,0-1.5.2h0c0,0,0,0,0,0,.3.6.8,1,1.1,1.5.3.6.5,1.1.8,1.7h0c.5-.4.8-1,.8-1.9-.2-.3-.2-.5-.4-.8-.2-.4-.7-.5-1-.8h0ZM119.8,62.3" fill="#00678c" fill-rule="evenodd" stroke-width="0"/>
    <path d="M81.6,120h13.4c1.6,0,3.1-.3,4.3-.9,2-.9,3-2.2,3-3.8v-3.4c0-1.3-1.1-2.6-3.3-3.4-1.1-.4-2.6-.7-4-.7h-5.6c-1.9,0-2.8-.6-3-1.8,0-.1,0-.3,0-.4v-2.1c0-.1,0-.3,0-.4.2-1,.8-1.2,2.4-1.4h13.8v-3.1h-13.1c-1.9,0-2.9.1-3.8.4-2.8.9-4,2.2-4,4.6v2.7c0,2.1,2.4,3.9,6.4,4.3.4,0,.9,0,1.4,0h4.8c.2,0,.4,0,.5,0,1.5.1,2.1.4,2.5.9.3.3.4.5.4.9v2.7c0,.3-.2.8-.6,1.1-.4.4-1.1.6-2,.6-.2,0-.3,0-.5,0h-12.9v3.1ZM131.4,114.6c0,3.2,2.4,5,7.2,5.3.5,0,.9,0,1.4,0h12.2v-3.1h-12.3c-2.7,0-3.8-.7-3.8-2.3v-16.1h-4.7v16.1h0ZM105.3,114.8v-11.1c0-2.8,2-4.5,5.9-5.1.4,0,.9,0,1.3,0h8.9c.5,0,.9,0,1.3,0,3.9.5,5.9,2.3,5.9,5.1v11.1c0,2.3-.8,3.5-2.8,4.3l4.6,4.1h-5.4l-3.7-3.4-3.8.2h-5c-.8,0-1.8-.1-2.7-.4-3-.8-4.4-2.4-4.4-5h0ZM110.4,114.5c0,.1,0,.3.1.5.2,1.3,1.5,2,3.3,2h4.2l-3.9-3.5h5.4l3.4,3.1c.6-.4,1-.9,1.2-1.5,0-.1,0-.3,0-.5v-10.6c0-.1,0-.3,0-.4-.2-1.2-1.5-1.9-3.3-1.9h-7c-2.1,0-3.4.9-3.4,2.3v10.5ZM154.3,120.1h.7v-2.6h.9v-.5h-2.5v.5h.9v2.6ZM159.5,120.1h.6v-3.1h-1l-.8,2.1-.9-2.1h-.9v3.1h.6v-2.4h0l.9,2.4h.5l.9-2.4v2.4h0ZM159.5,120.1" fill="#ce8b2c" fill-rule="evenodd" stroke-width="0"/>
  </g>
</svg>