<?xml version="1.0" encoding="UTF-8"?>
<svg id="Layer_1" data-name="Layer 1" xmlns="http://www.w3.org/2000/svg" version="1.1" xmlns:xlink="http://www.w3.org/1999/xlink" viewBox="0 0 180 180">
  <defs>
    <clipPath id="clippath">
      <path d="M70.6,66.6l-13.5,7.8c-.5.3-.8.8-.8,1.4v15.6c0,.6.3,1.1.8,1.4l13.5,7.8c.5.3,1.1.3,1.6,0l13.5-7.8c.5-.3.8-.8.8-1.4v-15.6c0-.6-.3-1.1-.8-1.4l-13.5-7.8c-.3-.1-.5-.2-.8-.2s-.6,0-.8.2h0Z" fill="none" stroke-width="0"/>
    </clipPath>
    <linearGradient id="linear-gradient" x1="-868.5" y1="638.5" x2="-868.1" y2="638.5" gradientTransform="translate(-110099.1 57578.1) rotate(116.1) scale(115.3 -115.3)" gradientUnits="userSpaceOnUse">
      <stop offset=".3" stop-color="#3e863d"/>
      <stop offset=".5" stop-color="#55934f"/>
      <stop offset=".8" stop-color="#5aad45"/>
    </linearGradient>
    <clipPath id="clippath-1">
      <path d="M56.6,92.4c.1.2.3.3.5.4l11.6,6.7,1.9,1.1c.3.2.6.2.9.2.1,0,.2,0,.3,0l14.2-26.1c-.1-.1-.2-.2-.4-.3l-8.8-5.1-4.7-2.7c-.1,0-.3-.1-.4-.2l-15.2,26Z" fill="none" stroke-width="0"/>
    </clipPath>
    <linearGradient id="linear-gradient-2" x1="-867" y1="627.2" x2="-866.7" y2="627.2" gradientTransform="translate(189515.2 -1802.4) rotate(-36.5) scale(177.1 -177.1)" gradientUnits="userSpaceOnUse">
      <stop offset=".6" stop-color="#3e863d"/>
      <stop offset=".7" stop-color="#619857"/>
      <stop offset="1" stop-color="#76ac64"/>
    </linearGradient>
    <clipPath id="clippath-2">
      <path d="M71.3,66.4c-.2,0-.4,0-.7.2l-13.5,7.8,14.5,26.5c.2,0,.4,0,.6-.2l13.5-7.8c.4-.2.7-.7.8-1.1l-14.8-25.3c-.1,0-.2,0-.3,0s0,0-.1,0h0Z" fill="none" stroke-width="0"/>
    </clipPath>
    <linearGradient id="linear-gradient-3" x1="-863" y1="628.5" x2="-862.7" y2="628.5" gradientTransform="translate(112146.2 81715.1) scale(129.9 -129.9)" gradientUnits="userSpaceOnUse">
      <stop offset=".2" stop-color="#6bbf47"/>
      <stop offset=".4" stop-color="#79b461"/>
      <stop offset=".5" stop-color="#75ac64"/>
      <stop offset=".7" stop-color="#659e5a"/>
      <stop offset=".9" stop-color="#3e863d"/>
    </linearGradient>
  </defs>
  <rect width="180" height="180" fill="#fff" stroke-width="0"/>
  <g>
    <path d="M89.2,133.4c-.5,0-.9-.1-1.3-.4l-4.3-2.5c-.6-.4-.3-.5-.1-.6.9-.3,1-.4,1.9-.9,0,0,.2,0,.3,0l3.3,1.9c.1,0,.3,0,.4,0l12.8-7.4c.1,0,.2-.2.2-.3v-14.8c0-.1,0-.3-.2-.4l-12.8-7.4c-.1,0-.3,0-.4,0l-12.8,7.4c-.1,0-.2.2-.2.3v14.8c0,.1,0,.3.2.3l3.5,2c1.9,1,3.1-.2,3.1-1.3v-14.6c0-.2.2-.4.4-.4h1.6c.2,0,.4.2.4.4v14.6c0,2.5-1.4,4-3.8,4s-1.3,0-3-.8l-3.4-1.9c-.8-.5-1.3-1.4-1.3-2.3v-14.8c0-1,.5-1.9,1.3-2.3l12.8-7.4c.8-.5,1.9-.5,2.7,0l12.8,7.4c.8.5,1.3,1.4,1.3,2.3v14.8c0,1-.5,1.9-1.3,2.3l-12.8,7.4c-.4.2-.9.4-1.3.4" fill="#689f63" stroke-width="0"/>
    <path d="M93.1,123.3c-5.6,0-6.8-2.6-6.8-4.7s.2-.4.4-.4h1.7c.2,0,.3.1.4.3.3,1.7,1,2.5,4.4,2.5s3.8-.6,3.8-2-.3-1.4-4.5-1.8c-3.5-.3-5.7-1.1-5.7-3.9s2.2-4.1,5.8-4.1,6.1,1.4,6.4,4.5c0,.1,0,.2,0,.3,0,0-.2.1-.3.1h-1.7c-.2,0-.3-.1-.4-.3-.4-1.8-1.4-2.3-4-2.3s-3.3,1-3.3,1.8.4,1.2,4.4,1.7c3.9.5,5.8,1.3,5.8,4s-2.3,4.4-6.4,4.4M108.7,107.6h.4c.4,0,.4-.2.4-.4,0-.4-.3-.4-.4-.4h-.4v.8ZM108.2,106.4h1c.3,0,1,0,1,.7s-.3.6-.5.7c.4,0,.4.3.5.6,0,.2,0,.6.1.7h-.6c0-.1-.1-.8-.1-.9,0-.2,0-.2-.3-.2h-.5v1.1h-.5v-2.8ZM107.1,107.8c0,1.1.9,2.1,2.1,2.1s2.1-.9,2.1-2.1-.9-2.1-2.1-2.1-2.1.9-2.1,2.1M111.6,107.8c0,1.4-1.1,2.5-2.5,2.5s-2.5-1.1-2.5-2.5,1.1-2.5,2.5-2.5,2.5,1.1,2.5,2.5" fill="#689f63" stroke-width="0"/>
    <path d="M49.5,75.6c0-.6-.3-1.1-.8-1.4l-13.6-7.8c-.2-.1-.5-.2-.7-.2h-.1c-.3,0-.5,0-.8.2l-13.6,7.8c-.5.3-.8.8-.8,1.4v21c0,.3.2.6.4.7.3.2.6.2.8,0l8.1-4.6c.5-.3.8-.8.8-1.4v-9.8c0-.6.3-1.1.8-1.4l3.4-2c.3-.1.5-.2.8-.2s.6,0,.8.2l3.4,2c.5.3.8.8.8,1.4v9.8c0,.6.3,1.1.8,1.4l8.1,4.6c.3.2.6.2.8,0,.2-.1.4-.4.4-.7v-21ZM113.6,86.6c0,.1,0,.3-.2.4l-4.7,2.7c-.1,0-.3,0-.4,0l-4.7-2.7c-.1,0-.2-.2-.2-.4v-5.4c0-.1,0-.3.2-.4l4.7-2.7c.1,0,.3,0,.4,0l4.7,2.7c.1,0,.2.2.2.4v5.4ZM114.9,46.7c-.3-.1-.6-.1-.8,0-.3.1-.4.4-.4.7v20.8c0,.2-.1.4-.3.5-.2.1-.4.1-.6,0l-3.4-2c-.5-.3-1.1-.3-1.6,0l-13.6,7.8c-.5.3-.8.8-.8,1.4v15.7c0,.6.3,1.1.8,1.4l13.6,7.8c.5.3,1.1.3,1.6,0l13.6-7.8c.5-.3.8-.8.8-1.4v-39.1c0-.6-.3-1.1-.8-1.4l-8.1-4.5ZM160.1,81c.5-.3.8-.8.8-1.4v-3.8c0-.6-.3-1.1-.8-1.4l-13.5-7.8c-.5-.3-1.1-.3-1.6,0l-13.6,7.8c-.5.3-.8.8-.8,1.4v15.7c0,.6.3,1.1.8,1.4l13.5,7.7c.5.3,1.1.3,1.6,0l8.2-4.5c.3-.1.4-.4.4-.7s-.2-.6-.4-.7l-13.7-7.8c-.3-.1-.4-.4-.4-.7v-4.9c0-.3.2-.6.4-.7l4.3-2.5c.3-.1.6-.1.8,0l4.3,2.5c.3.1.4.4.4.7v3.9c0,.3.2.6.4.7.3.1.6.1.8,0l8.1-4.7Z" fill="#333" fill-rule="evenodd" stroke-width="0"/>
    <path d="M145.6,80.3c0,0,.2,0,.3,0l2.6,1.5c0,0,.2.2.2.3v3c0,.1,0,.2-.2.3l-2.6,1.5c0,0-.2,0-.3,0l-2.6-1.5c0,0-.2-.2-.2-.3v-3c0-.1,0-.2.2-.3l2.6-1.5Z" fill="#689f63" fill-rule="evenodd" stroke-width="0"/>
    <g clip-path="url(#clippath)">
      <path d="M100.2,73.1l-38.1-18.7-19.5,39.8,38.1,18.7,19.5-39.8Z" fill="url(#linear-gradient)" stroke-width="0"/>
    </g>
    <g clip-path="url(#clippath-1)">
      <path d="M40.2,78.6l26.9,36.4,35.5-26.3-26.9-36.4-35.5,26.3Z" fill="url(#linear-gradient-2)" stroke-width="0"/>
    </g>
    <g clip-path="url(#clippath-2)">
      <path d="M57.1,66.4v34.4h29.4v-34.4h-29.4Z" fill="url(#linear-gradient-3)" stroke-width="0"/>
    </g>
  </g>
</svg>